Coordinates
version=1
nRows=9
nColumns=36
inDegrees=yes

Units are S.I. units (second, meters, Newtons, ...)
If the header above contains a line with 'inDegrees', this indicates whether rotational values are in degrees (yes) or radians (no).

endheader
time	pelvis_tilt	pelvis_list	pelvis_rotation	pelvis_tx	pelvis_ty	pelvis_tz	hip_flexion_r	hip_adduction_r	hip_rotation_r	knee_angle_r	knee_angle_r_beta	ankle_angle_r	subtalar_angle_r	mtp_angle_r	hip_flexion_l	hip_adduction_l	hip_rotation_l	knee_angle_l	knee_angle_l_beta	ankle_angle_l	subtalar_angle_l	mtp_angle_l	lumbar_extension	lumbar_bending	lumbar_rotation	arm_flex_r	arm_add_r	arm_rot_r	elbow_flex_r	pro_sup_r	arm_flex_l	arm_add_l	arm_rot_l	elbow_flex_l	pro_sup_l
     14.98333330	      8.50017594	     -5.27484783	      1.24718367	      0.48626427	      1.04216102	      0.74367430	     -2.39020401	      8.39771312	      1.09363350	      9.67760893	      0.16890614	      7.57633053	     -3.54172223	     -7.49999987	     12.42257986	     -9.68122187	     -0.97799821	     66.17963121	      1.15505246	      1.17055391	    -12.54662122	     -7.49999987	    -19.43269492	      7.84164051	      7.30114217	      7.17904851	    -20.06816772	     11.78844177	     32.37030647	     77.13183405	      6.99804773	     -9.48304553	     19.11798054	     20.03879347	     86.34243967
     15.00000000	      9.11603102	     -4.79603712	      0.99335997	      0.48502490	      1.04536414	      0.74401823	     -4.75314010	      7.96128090	      1.61481551	      8.51051472	      0.14853650	      7.83279262	     -2.96061671	     -7.49999987	     12.81498416	     -9.32978159	     -1.29025904	     64.35278702	      1.12316802	      1.76350606	    -11.89266847	     -7.49999987	    -20.17012596	      7.25138867	      7.15711361	      8.06761014	    -20.13113785	     11.30105305	     33.53529357	     76.04473724	      5.64601961	     -9.70957121	     18.94019628	     20.15756441	     85.06520980
     15.01666670	      9.41760764	     -4.36261969	      0.72003226	      0.48234702	      1.04805138	      0.74334134	     -6.73510604	      7.49509675	      2.00960748	      7.55935454	      0.13193563	      8.09629309	     -2.21865808	     -7.49999987	     13.18437964	     -8.84413548	     -1.72378000	     61.49182875	      1.07323487	      3.02232557	    -11.04305831	     -7.49999987	    -20.44115273	      6.75258098	      7.01685644	      9.07592843	    -20.28879291	     11.41074298	     34.12502207	     75.48926671	      4.60213892	     -9.75885307	     19.34766301	     19.42538856	     84.68804307
     15.03333330	      9.58694051	     -3.92955276	      0.42280554	      0.47939324	      1.05030548	      0.74257465	     -8.49413440	      6.99544636	      2.47327155	      6.78926654	      0.11849505	      8.12294931	     -1.85841538	     -7.49999987	     13.41560385	     -8.18372986	     -2.24757669	     57.58961146	      1.00512833	      4.54839890	    -10.25458382	     -7.49999987	    -20.69262281	      6.23107311	      6.86982320	      9.86476132	    -20.43752796	     11.31056511	     34.98339920	     74.81455390	      3.48047038	     -9.82746873	     19.54783223	     19.29747842	     84.00009010
     15.05000000	      9.60143547	     -3.60432145	      0.12342944	      0.47744250	      1.05101640	      0.74276084	     -9.89705188	      6.59461724	      2.89152790	      6.25771555	      0.10921774	      8.10117444	     -1.72483397	     -7.49999987	     13.75465905	     -7.54413214	     -2.70329100	     53.23188424	      0.92907165	      5.81315231	     -9.43647830	     -7.49999987	    -20.94492190	      5.79736924	      6.77191605	     10.40384138	    -20.65711331	     10.99922133	     36.23310872	     73.74610816	      2.40833248	     -9.89210705	     19.48406878	     19.49065523	     82.70053935
     15.06666670	      9.53378871	     -3.32749807	     -0.11995970	      0.47524816	      1.05099020	      0.74419347	    -10.99511430	      6.27463653	      3.35979627	      5.89573557	      0.10290000	      8.01056899	     -2.11733885	     -7.49999987	     14.21141436	     -6.88904889	     -3.00680310	     48.71331204	      0.85020768	      6.59166985	     -8.83611388	     -7.49999987	    -21.21561807	      5.39887664	      6.75692827	     10.72650128	    -20.95066350	     10.64849395	     37.67351603	     72.63782319	      1.43992439	     -9.93959757	     19.35635261	     20.10901550	     81.13659006
     15.08333330	      9.17389414	     -3.19127184	     -0.38588152	      0.47128684	      1.04926119	      0.74517652	    -11.59119895	      6.08872222	      3.52189160	      5.68909413	      0.09929342	      8.28036596	     -2.03945625	     -7.49999987	     14.98850848	     -6.31328184	     -3.13565811	     44.11385953	      0.76993209	      7.37654158	     -8.01826691	     -7.49999987	    -21.09449536	      5.15717848	      6.96590767	     10.88507114	    -21.30222282	     10.35074750	     38.84769624	     72.62168256	      1.01220664	     -9.78869976	     19.51274134	     19.61359993	     81.65062136
     15.10000000	      8.81067247	     -3.05718105	     -0.66911976	      0.46574876	      1.04686455	      0.74446836	    -12.08604075	      5.89521608	      3.57964630	      5.53011313	      0.09651868	      8.80567861	     -1.83678357	     -7.49999987	     15.63332785	     -5.70904070	     -3.15775751	     39.23937098	      0.68485622	      8.03086580	     -7.07464170	     -7.49999987	    -21.10755250	      4.89604384	      7.17539212	     11.05406032	    -21.61258290	     10.00592517	     40.10674059	     72.29949903	      0.54296379	     -9.73899957	     19.49583697	     19.84425387	     81.49791432
     15.11666670	      8.31609712	     -2.88895496	     -0.86830523	      0.46144233	      1.04441776	      0.74279497	    -12.42613372	      5.68169433	      3.74807950	      5.28326389	      0.09221035	      9.25331787	     -2.18333685	     -7.49999987	     16.26604441	     -5.11340827	     -3.01228452	     34.16906864	      0.59636275	      8.33305467	     -6.01197116	     -7.49999987	    -20.89326743	      4.61625803	      7.48541759	     11.00983729	    -22.01536986	      9.65704389	     41.30929206	     72.42790952	      0.40018452	     -9.64895511	     19.61195957	     19.76807207	     82.02670262
